<svg xmlns="http://www.w3.org/2000/svg" width="394" height="416" viewBox="0 0 394 416" fill="none">
  <path opacity="0.1" d="M125.447 315.697C125.724 313.108 125.626 310.214 125.527 307.243V307.242V307.242V307.242V307.241C125.455 305.096 125.381 302.911 125.447 300.772M125.447 315.697L-119.167 44.4294C-117.733 45.629 -116.3 46.8515 -114.918 48.0307L-114.917 48.0313C-113.633 49.1273 -112.392 50.1857 -111.235 51.1534C-104.536 56.7588 -97.8752 62.4745 -91.2258 68.1807L-91.2242 68.1821L-91.2198 68.1859L-91.2155 68.1896L-91.2115 68.193C-82.0805 76.0287 -72.9703 83.8467 -63.8068 91.3367C-51.7981 101.148 -40.1322 111.251 -28.528 121.301L-28.5271 121.302L-28.5253 121.303L-28.5232 121.305L-28.5215 121.307C-19.2452 129.34 -10.0082 137.34 -0.667152 145.129C15.2762 158.588 31.1214 172.15 46.9663 185.712C62.6244 199.115 78.2822 212.517 94.0343 225.818M125.447 315.697C125.323 316.857 125.16 317.231 124.421 317.842L125.447 315.697ZM125.447 300.772C125.715 292.092 125.624 282.972 125.535 274.008L125.535 274.004C125.49 269.581 125.447 265.196 125.447 260.921C125.447 260.061 125.479 259.187 125.51 258.333C125.584 256.316 125.654 254.409 125.288 253.046M125.447 300.772L124.947 300.757C124.881 302.913 124.955 305.118 125.027 307.264C125.041 307.675 125.055 308.084 125.067 308.49C125.147 311.028 125.184 313.452 124.95 315.643L124.95 315.644C124.879 316.311 124.8 316.624 124.657 316.867C124.51 317.116 124.266 317.342 123.719 317.758L123.237 318.125L123.689 318.529C124.236 319.018 124.493 319.282 124.653 319.612C124.814 319.944 124.898 320.392 124.947 321.297L124.947 321.297C125.051 323.185 125.036 325.091 125.002 327.03C124.996 327.367 124.989 327.705 124.983 328.045C124.952 329.651 124.92 331.281 124.947 332.924C125.287 354.411 125.035 377.347 124.799 398.833C124.74 404.235 124.681 409.545 124.633 414.717C124.127 414.617 123.67 414.297 123.175 413.841C122.985 413.667 122.818 413.5 122.644 413.327C122.507 413.19 122.367 413.05 122.208 412.899C121.885 412.592 121.531 412.284 121.135 412.048C100.393 394.393 79.5586 376.928 58.6654 359.429L57.1343 358.147C47.2376 349.859 37.3299 341.562 27.7449 332.871C20.5246 326.324 13.0009 320.077 5.49838 313.846C2.5356 311.386 -0.423882 308.928 -3.36009 306.456C-8.56866 302.07 -13.7315 297.627 -18.8979 293.179L-19.001 293.091C-24.1324 288.673 -29.2677 284.253 -34.4511 279.886L-34.7733 280.268L-34.4513 279.885C-42.1372 273.414 -49.8612 266.976 -57.5896 260.535C-70.7516 249.565 -83.9263 238.584 -96.948 227.408C-99.1793 225.493 -101.387 223.533 -103.596 221.571C-106.488 219.003 -109.383 216.431 -112.339 213.956L-112.66 214.339L-112.339 213.956C-113.065 213.348 -113.791 212.744 -114.517 212.14C-118.942 208.456 -123.336 204.798 -127.388 200.686C-127.518 147.168 -127.607 92.6365 -127.23 38.539C-126.193 39.1383 -124.905 40.1497 -123.587 41.2627C-122.845 41.89 -122.104 42.5403 -121.406 43.1532L-121.38 43.1755C-120.693 43.7783 -120.047 44.3462 -119.488 44.8129M125.447 300.772L124.947 300.757C125.215 292.086 125.124 282.985 125.035 274.027C124.991 269.6 124.947 265.209 124.947 260.921C124.947 260.058 124.979 259.16 125.011 258.295C125.032 257.715 125.053 257.149 125.063 256.617C125.088 255.253 125.045 254.071 124.805 253.176M125.288 253.046C124.963 251.841 123.429 250.597 122.155 249.564L122.144 249.555L121.977 249.419L121.917 249.37L121.796 249.271M125.288 253.046L124.805 253.176C124.805 253.176 124.805 253.176 124.805 253.176M125.288 253.046L124.805 253.176M121.796 249.271C113.054 242.116 105.188 235.375 96.9964 228.356C96.0144 227.514 95.0278 226.669 94.0343 225.818M121.796 249.271L121.479 249.658C121.599 249.757 121.722 249.856 121.846 249.957C122.421 250.423 123.029 250.916 123.557 251.429C124.211 252.063 124.664 252.655 124.805 253.176M121.796 249.271L121.479 249.658C112.733 242.5 104.863 235.755 96.6717 228.736C95.6895 227.894 94.7026 227.048 93.7091 226.198M94.0343 225.818L93.7117 226.2C93.7109 226.199 93.71 226.198 93.7091 226.198M94.0343 225.818L93.7091 226.198M-119.488 44.8129L-0.987366 145.513C-0.988136 145.513 -0.988907 145.512 -0.989677 145.511M-119.488 44.8129C-118.107 45.9685 -116.726 47.1458 -115.389 48.2865L-115.241 48.4121C-113.957 49.5076 -112.715 50.5676 -111.556 51.5369C-104.868 57.1324 -98.2106 62.8457 -91.561 68.552C-82.4188 76.3973 -73.292 84.2295 -64.1232 91.7238L-63.8115 91.3425L-64.1231 91.7239C-52.1078 101.541 -40.4574 111.631 -28.8622 121.673C-19.5889 129.704 -10.3509 137.705 -0.989677 145.511M-119.488 44.8129L-0.989677 145.511M93.7091 226.198C77.9563 212.896 62.298 199.493 46.641 186.092L46.3608 185.852C30.6091 172.37 14.8581 158.889 -0.989677 145.511M129.949 51.075C130.034 51.0709 130.118 51.0669 130.203 51.063C130.205 51.0691 130.208 51.0751 130.211 51.0809C130.266 51.2132 130.246 51.328 130.243 51.3434C130.234 51.4046 130.215 51.446 130.213 51.4506L130.213 51.4509C130.203 51.4716 130.197 51.4792 130.197 51.4798C130.196 51.4807 130.187 51.4933 130.165 51.51C130.145 51.5249 130.082 51.5672 129.982 51.5739L129.949 51.075ZM129.949 51.075C129.875 51.0799 129.809 51.1563 129.774 51.2133L129.837 51.7678C129.82 51.7708 129.801 51.7732 129.78 51.7744C109.069 52.927 95.5057 61.3462 85.0303 72.7716C74.8376 83.8918 66.8306 100.046 67.6252 122.13C68.3385 141.963 77.0508 157.636 88.0922 168.309L87.7447 168.668L88.0923 168.309C99.1148 178.965 113.974 187.694 134.937 186.737C155.099 185.816 168.608 177.647 179.684 165.734C190.085 154.549 198.132 138.544 197.28 116.579C196.49 96.1315 187.901 80.5574 177.009 70.2023C166.154 59.883 151.58 50.5147 129.974 51.5744L129.949 51.075ZM160.96 -154.953L160.965 -154.948L160.971 -154.943C192.534 -128.415 224 -101.77 255.475 -75.1167C269.18 -63.5117 282.886 -51.9053 296.602 -40.3065C303.488 -34.4817 310.365 -28.7138 317.247 -22.9415C319.406 -21.1307 321.565 -19.3195 323.726 -17.506L324.047 -17.889L323.726 -17.5059C330.511 -11.8149 337.281 -6.11646 344.056 -0.414383L344.098 -0.378998C350.886 5.33476 357.679 11.0521 364.495 16.7687C365.62 17.7124 366.756 18.6375 367.89 19.561C371.205 22.2603 374.504 24.946 377.461 28.0436C374.889 30.9226 371.907 33.3784 368.895 35.8591C367.848 36.7221 366.796 37.5881 365.757 38.476L366.082 38.8561L365.757 38.4761C364.547 39.5102 363.325 40.5401 362.101 41.5719C359.218 44.0016 356.322 46.4421 353.541 48.9745C343.912 56.9821 334.018 65.393 324.045 73.8703C315.39 81.2275 306.676 88.6348 298.026 95.8721C295.769 97.7604 293.647 99.6695 291.482 101.618L291.36 101.727C289.151 103.715 286.892 105.745 284.382 107.847L284.382 107.848C284.14 108.05 283.841 108.315 283.513 108.605C283.425 108.683 283.336 108.762 283.244 108.843C282.809 109.227 282.336 109.641 281.869 110.022C281.4 110.404 280.949 110.745 280.56 110.989C280.365 111.11 280.195 111.201 280.053 111.261C279.905 111.323 279.819 111.337 279.783 111.338L279.782 111.338C279.581 111.34 279.259 111.229 278.819 110.958C278.396 110.697 277.93 110.332 277.458 109.924C276.989 109.518 276.527 109.082 276.109 108.685L275.99 108.571C275.625 108.224 275.291 107.906 275.033 107.688L274.71 108.07L275.033 107.688C274.052 106.859 273.096 106.045 272.154 105.244C268.351 102.011 264.779 98.9738 260.752 95.8732C251.496 87.6724 241.97 79.7503 232.448 71.8375L232.066 71.5199C222.664 63.7078 213.269 55.9013 204.132 47.8325L204.124 47.8256C178.94 26.5257 154.182 4.79747 130.701 -18.2426L130.454 -18.4845L130.141 -18.3395C129.092 -17.8543 128.292 -17.0721 127.59 -16.2755C127.346 -15.999 127.119 -15.7264 126.897 -15.4609C126.457 -14.9348 126.04 -14.436 125.567 -13.9875C115.479 -4.43893 104.936 5.26471 94.4879 14.706C80.9187 26.8705 67.3887 38.9026 53.5666 50.9441C48.1169 55.6901 42.797 60.4149 37.4276 65.1837C33.7542 68.4462 30.0576 71.7292 26.2804 75.0538L26.6108 75.4291L26.2804 75.0538C14.8121 85.1514 3.90945 94.7368 -7.97858 104.897C-7.97874 104.897 -7.97909 104.898 -7.97926 104.898L-8.19314 105.08C-9.13754 105.884 -10.2282 106.813 -11.464 107.847C-11.7253 108.066 -11.9904 108.297 -12.258 108.531C-12.6412 108.866 -13.0297 109.206 -13.4203 109.518C-13.7426 109.776 -14.039 109.992 -14.2958 110.144C-14.5682 110.304 -14.7329 110.352 -14.8071 110.355C-14.9655 110.359 -15.2458 110.274 -15.6561 110.037C-16.049 109.811 -16.4931 109.486 -16.9574 109.113C-17.5395 108.644 -18.1062 108.137 -18.6262 107.673C-18.9543 107.379 -19.2637 107.103 -19.5468 106.863L-19.8701 107.244L-19.5468 106.863C-42.7402 87.2013 -66.1633 67.8872 -89.4938 48.6494L-90.2932 47.9904C-90.2947 47.989 -90.2963 47.9877 -90.2978 47.9864C-91.7028 46.7706 -93.155 45.5111 -94.6401 44.2232C-100.224 39.3806 -106.273 34.1345 -112.03 29.2869L-112.03 29.2867C-112.257 29.0955 -112.538 28.8818 -112.823 28.6652L-112.879 28.6226C-113.188 28.3876 -113.503 28.1463 -113.79 27.9058C-114.079 27.6635 -114.321 27.4358 -114.49 27.2316C-114.672 27.0115 -114.707 26.8912 -114.708 26.8576L-114.708 26.855L-114.708 26.8544C-114.707 26.8462 -114.692 26.7432 -114.543 26.5132C-114.402 26.2941 -114.184 26.027 -113.899 25.7216C-113.332 25.1127 -112.547 24.4021 -111.71 23.6909C-110.875 22.9819 -109.999 22.282 -109.255 21.695C-109.038 21.5239 -108.831 21.3615 -108.64 21.2108C-108.18 20.8497 -107.806 20.5566 -107.591 20.3758L-107.912 19.9926L-107.591 20.3757C-103.665 17.0841 -99.9142 13.8134 -96.1657 10.5417L-95.8924 10.3032C-92.234 7.11008 -88.5738 3.91537 -84.7455 0.692886L-85.0674 0.310364L-84.7454 0.692871C-74.3195 -8.08386 -63.9264 -16.787 -53.5533 -25.4735C-33.1837 -42.5311 -12.8908 -59.5244 7.42406 -76.8844C14.2257 -82.6951 20.9241 -88.4765 27.594 -94.2333C41.1355 -105.921 54.5594 -117.507 68.4904 -129.031C69.8474 -130.153 71.2117 -131.28 72.5815 -132.411C81.4001 -139.693 90.4465 -147.162 99.2757 -154.955C105.986 -160.877 113.253 -166.975 120.487 -173.046C122.356 -174.615 124.223 -176.182 126.077 -177.743C126.379 -177.997 126.736 -178.318 127.108 -178.654L127.22 -178.756C127.637 -179.131 128.072 -179.521 128.489 -179.87C128.909 -180.22 129.295 -180.516 129.613 -180.708C129.773 -180.805 129.899 -180.866 129.993 -180.897C130.043 -180.914 130.072 -180.918 130.082 -180.919C130.575 -180.781 131.181 -180.354 131.884 -179.757C132.178 -179.508 132.475 -179.241 132.777 -178.97C132.831 -178.922 132.884 -178.874 132.938 -178.825C133.293 -178.508 133.653 -178.188 134.006 -177.904C142.735 -170.867 153.188 -161.887 160.96 -154.953ZM142.502 413.884C142 414.25 141.508 414.527 141.007 414.663C140.551 360.933 140.524 306.763 141.01 252.905C142.833 250.761 144.99 248.954 147.158 247.138C147.59 246.776 148.022 246.414 148.453 246.049L148.453 246.049C155.49 240.065 162.684 234.057 169.883 228.045C170.617 227.432 171.352 226.818 172.086 226.205C177.78 221.45 183.438 216.597 189.098 211.743C193.888 207.635 198.68 203.525 203.497 199.472C234.985 172.974 266.437 146.474 297.889 119.599C318.876 101.664 339.475 84.1902 361.018 66.4673C361.954 65.6984 362.891 64.928 363.831 64.156C368.17 60.5923 372.55 56.9949 376.886 53.3444L376.887 53.344C378.553 51.9386 380.192 50.5107 381.822 49.0903C385.473 45.9091 389.081 42.7655 392.852 39.9971C393.157 40.3714 393.277 40.866 393.299 41.4634C393.313 41.8352 393.288 42.2229 393.258 42.6189L393.245 42.7797C393.218 43.1154 393.191 43.4611 393.191 43.7751C393.19 56.9089 393.167 69.9501 393.145 82.9367C393.099 109.364 393.054 135.565 393.191 161.861C393.208 165.033 393.22 168.334 393.232 171.704C393.256 178.422 393.282 185.415 393.35 192.206C393.357 192.942 393.386 193.792 393.417 194.68C393.448 195.572 393.48 196.505 393.493 197.42C393.521 199.267 393.471 200.979 393.205 202.086C393.104 202.508 392.787 203.013 392.268 203.589C391.756 204.157 391.089 204.748 390.354 205.346C389.721 205.861 389.048 206.37 388.394 206.867L388.084 207.102C387.339 207.668 386.626 208.216 386.06 208.717L386.392 209.092L386.06 208.717C376.06 217.585 365.55 226.301 355.127 234.945C347.44 241.319 339.801 247.654 332.448 253.982C327.368 258.351 322.244 262.685 317.071 266.926L317.07 266.927C313.969 269.474 310.911 272.04 307.854 274.604C303.248 278.467 298.648 282.327 293.916 286.112L293.915 286.112C292.586 287.179 291.35 288.337 290.135 289.487L289.879 289.729C288.748 290.801 287.631 291.859 286.45 292.846C259.375 315.465 232.221 338.289 205.21 360.993C186.137 377.026 167.134 392.998 148.282 408.796L148.265 408.81L148.25 408.825C147.108 409.963 145.801 411.165 144.483 412.237C144.234 412.44 143.979 412.66 143.728 412.878C143.65 412.946 143.573 413.013 143.496 413.079C143.165 413.365 142.837 413.64 142.502 413.884Z" stroke="white"/>
</svg>